<svg width="341" height="340" viewBox="0 0 341 340" fill="none" xmlns="http://www.w3.org/2000/svg">
<path d="M341 260.032H0V260.202H341V260.032Z" fill="#EBEBEB"/>
<path d="M306.832 270.973H284.244V271.143H306.832V270.973Z" fill="#EBEBEB"/>
<path d="M225.892 272.823H199.144V272.993H225.892V272.823Z" fill="#EBEBEB"/>
<path d="M283.562 264.663H244.674V264.833H283.562V264.663Z" fill="#EBEBEB"/>
<path d="M165.801 265.805H118.995V265.975H165.801V265.805Z" fill="#EBEBEB"/>
<path d="M176.188 265.805H171.871V265.975H176.188V265.805Z" fill="#EBEBEB"/>
<path d="M153.545 268.675H67.061V268.845H153.545V268.675Z" fill="#EBEBEB"/>
<path d="M161.634 229.704H29.9466C28.915 229.702 27.9262 229.292 27.1974 228.564C26.4685 227.836 26.0592 226.85 26.0592 225.821V41.2487C26.0682 40.226 26.4815 39.2481 27.2094 38.5275C27.9372 37.8069 28.9209 37.4017 29.9466 37.3999H161.634C162.667 37.3999 163.657 37.809 164.388 38.5371C165.118 39.2653 165.528 40.2529 165.528 41.2827V225.821C165.528 226.851 165.118 227.839 164.388 228.567C163.657 229.295 162.667 229.704 161.634 229.704ZM29.9466 37.5359C28.9602 37.5377 28.0148 37.9297 27.3179 38.6258C26.6211 39.3218 26.2297 40.2652 26.2297 41.2487V225.821C26.2297 226.805 26.6211 227.748 27.3179 228.444C28.0148 229.14 28.9602 229.532 29.9466 229.534H161.634C162.621 229.532 163.567 229.14 164.265 228.444C164.963 227.749 165.356 226.805 165.358 225.821V41.2487C165.356 40.2646 164.963 39.3212 164.265 38.6253C163.567 37.9294 162.621 37.5377 161.634 37.5359H29.9466Z" fill="#EBEBEB"/>
<path d="M309.157 229.704H177.463C176.431 229.702 175.441 229.292 174.712 228.565C173.982 227.837 173.571 226.85 173.569 225.821V41.2487C173.58 40.2254 173.995 39.2475 174.724 38.5271C175.452 37.8066 176.437 37.4016 177.463 37.3999H309.157C310.182 37.4034 311.164 37.8094 311.89 38.5299C312.617 39.2503 313.029 40.2272 313.038 41.2487V225.821C313.038 226.849 312.63 227.834 311.902 228.562C311.175 229.29 310.188 229.7 309.157 229.704ZM177.463 37.5359C176.476 37.5377 175.53 37.9294 174.832 38.6253C174.134 39.3212 173.741 40.2646 173.739 41.2487V225.821C173.741 226.805 174.134 227.749 174.832 228.444C175.53 229.14 176.476 229.532 177.463 229.534H309.157C310.144 229.532 311.091 229.14 311.788 228.444C312.486 227.749 312.879 226.805 312.881 225.821V41.2487C312.879 40.2646 312.486 39.3212 311.788 38.6253C311.091 37.9294 310.144 37.5377 309.157 37.5359H177.463Z" fill="#EBEBEB"/>
<path d="M53.4279 260.032H77.3184L77.3184 180.009H53.4279L53.4279 260.032Z" fill="#F5F5F5"/>
<path d="M53.4211 260.032H57.363L57.363 180.009H53.4211L53.4211 260.032Z" fill="#F0F0F0"/>
<path d="M164.355 182.655H73.6356V202.674H164.355V182.655Z" fill="#E6E6E6"/>
<path d="M164.355 208.671H73.6356V213.295H164.355V208.671Z" fill="#E6E6E6"/>
<path d="M159.049 180.009H53.4211V186.959H159.049V180.009Z" fill="#F0F0F0"/>
<path d="M159.049 260.032H182.94V180.009H159.049V260.032Z" fill="#F5F5F5"/>
<path d="M159.049 260.032H162.991V180.009H159.049V260.032Z" fill="#F0F0F0"/>
<path d="M234.785 260.032V136.381H193.777V260.032H234.785Z" fill="#F0F0F0"/>
<path d="M232.535 175.875V139.475H196.027V175.875H232.535Z" fill="#E6E6E6"/>
<path d="M232.535 215.546V179.146H196.027V215.546H232.535Z" fill="#E6E6E6"/>
<path d="M232.535 255.211V218.811H196.027V255.211H232.535Z" fill="#E6E6E6"/>
<path d="M210.39 175.882V139.481H196.034V175.882H210.39Z" fill="#E0E0E0"/>
<path d="M210.383 215.546V179.146H196.027V215.546H210.383Z" fill="#E0E0E0"/>
<path d="M210.39 255.217V218.817H196.034V255.217H210.39Z" fill="#E0E0E0"/>
<path d="M245.922 260.025V136.374H234.785V260.025H245.922Z" fill="#F5F5F5"/>
<path d="M278.631 260.032V136.381H237.622V260.032H278.631Z" fill="#F0F0F0"/>
<path d="M276.374 175.882V139.481H239.866V175.882H276.374Z" fill="#E6E6E6"/>
<path d="M276.38 215.546V179.146H239.873V215.546H276.38Z" fill="#E6E6E6"/>
<path d="M276.38 255.217V218.817H239.873V255.217H276.38Z" fill="#E6E6E6"/>
<path d="M254.236 175.882V139.481H239.88V175.882H254.236Z" fill="#E0E0E0"/>
<path d="M254.229 215.546V179.146H239.873V215.546H254.229Z" fill="#E0E0E0"/>
<path d="M254.229 255.211V218.811H239.873V255.211H254.229Z" fill="#E0E0E0"/>
<path d="M289.768 260.032V136.381H278.631V260.032H289.768Z" fill="#F5F5F5"/>
<path d="M264.788 173.122C268.469 169.452 268.469 163.501 264.788 159.831C261.107 156.161 255.139 156.161 251.458 159.831C247.778 163.501 247.778 169.452 251.458 173.122C255.139 176.792 261.107 176.792 264.788 173.122Z" fill="#F5F5F5"/>
<path d="M225.967 206.148C225.901 208.598 224.879 210.925 223.118 212.634C221.357 214.344 218.996 215.3 216.538 215.3C214.081 215.3 211.72 214.344 209.959 212.634C208.198 210.925 207.176 208.598 207.11 206.148H225.967Z" fill="#F0F0F0"/>
<path d="M225.967 199.118C226.001 200.374 225.782 201.623 225.323 202.793C224.865 203.964 224.176 205.03 223.297 205.93C222.418 206.831 221.367 207.546 220.206 208.035C219.046 208.523 217.798 208.775 216.538 208.775C215.278 208.775 214.031 208.523 212.87 208.035C211.71 207.546 210.659 206.831 209.78 205.93C208.901 205.03 208.212 203.964 207.753 202.793C207.295 201.623 207.076 200.374 207.11 199.118H225.967Z" fill="#F0F0F0"/>
<path d="M242.349 255.21H271.988V224.06H242.349V255.21Z" fill="#F0F0F0"/>
<path d="M276.374 224.06H271.988V255.211H276.374V224.06Z" fill="#E0E0E0"/>
<path d="M250.062 136.381H261.847V90.8481H250.062V136.381Z" fill="#E6E6E6"/>
<path d="M218.11 136.38H257.223L263.129 83.082H224.017L218.11 136.38Z" fill="#F0F0F0"/>
<path d="M213.875 136.38H254.27L260.183 83.082H219.781L213.875 136.38Z" fill="#F5F5F5"/>
<path d="M242.628 136.38H250.471L241.435 83.082H233.599L242.628 136.38Z" fill="#FAFAFA"/>
<path d="M235.645 136.38H238.686L229.65 83.082H226.608L235.645 136.38Z" fill="#FAFAFA"/>
<path d="M140.451 161.847V59.3911L48.3811 59.3911V161.847H140.451Z" fill="#EBEBEB"/>
<path d="M141.283 161.84V59.3843H140.451V161.84H141.283Z" fill="#E0E0E0"/>
<path d="M55.2011 155.04H133.631V66.1845L55.2011 66.1845L55.2011 155.04Z" fill="#F5F5F5"/>
<path d="M100.602 159.8H122.692V128.975H100.602V159.8Z" fill="white"/>
<path d="M68.2068 148.947H90.2899L91.879 118.123H69.7958L68.2068 148.947Z" fill="white"/>
<path d="M112.932 94.0983H135.016L136.605 63.2671H114.521L112.932 94.0983Z" fill="white"/>
<path d="M83.9156 111.741L105.978 112.705L107.331 81.9103L85.2695 80.946L83.9156 111.741Z" fill="white"/>
<path d="M52.2936 103.179L74.3675 102.542L73.4719 71.73L51.3981 72.3679L52.2936 103.179Z" fill="white"/>
<path d="M170.5 290.741C243.53 290.741 302.733 287.295 302.733 283.043C302.733 278.792 243.53 275.346 170.5 275.346C97.4697 275.346 38.267 278.792 38.267 283.043C38.267 287.295 97.4697 290.741 170.5 290.741Z" fill="#F5F5F5"/>
<path d="M105.655 277.678H110.927L113.035 265.513H107.763L105.655 277.678Z" fill="#FFC3BD"/>
<path d="M74.6722 277.678H79.944L84.759 265.513H79.4871L74.6722 277.678Z" fill="#FFC3BD"/>
<path d="M80.6806 277.073H74.2562C74.1511 277.074 74.0493 277.11 73.9659 277.173C73.8824 277.237 73.8216 277.326 73.7924 277.426L72.4761 282.098C72.4433 282.205 72.4359 282.318 72.4546 282.429C72.4732 282.539 72.5173 282.643 72.5835 282.734C72.6497 282.824 72.7361 282.898 72.8358 282.949C72.9356 283.001 73.0459 283.028 73.1581 283.03C75.2041 282.996 76.7455 282.873 79.3439 282.873C80.9466 282.873 84.2338 283.043 86.4503 283.043C88.6668 283.043 89.076 280.86 88.1826 280.663C84.1724 279.779 82.7266 278.555 81.4854 277.392C81.2657 277.191 80.9791 277.077 80.6806 277.073Z" fill="#263238"/>
<path d="M110.921 277.073H105.171C105.065 277.074 104.963 277.109 104.878 277.173C104.793 277.236 104.731 277.325 104.701 277.426L103.391 282.098C103.357 282.205 103.348 282.319 103.366 282.43C103.384 282.541 103.428 282.646 103.495 282.737C103.561 282.827 103.648 282.901 103.749 282.952C103.849 283.003 103.961 283.03 104.073 283.03C106.119 282.996 109.154 282.873 111.759 282.873C114.815 282.873 117.434 283.043 121.014 283.043C123.176 283.043 123.899 280.86 123.006 280.663C118.914 279.766 115.579 279.67 112.148 277.481C111.786 277.232 111.36 277.09 110.921 277.073Z" fill="#263238"/>
<path d="M110.648 127.221C113.43 128.962 116.356 130.716 119.241 132.382C122.126 134.048 125.058 135.666 127.991 137.067C128.721 137.427 129.45 137.747 130.18 138.073C130.542 138.237 130.903 138.366 131.265 138.515L131.81 138.74L132.253 138.903C133.19 139.31 134.225 139.44 135.234 139.277C136.336 139 137.324 138.39 138.064 137.529C138.547 137.012 138.987 136.458 139.38 135.87C139.585 135.564 139.783 135.245 139.967 134.918L140.492 133.959L144.352 134.843C144.296 135.355 144.211 135.864 144.1 136.367C143.991 136.843 143.868 137.319 143.718 137.795C143.421 138.77 143.016 139.71 142.511 140.596C141.955 141.564 141.266 142.45 140.465 143.228C139.593 144.086 138.571 144.777 137.45 145.268C136.296 145.767 135.059 146.048 133.802 146.097C132.625 146.151 131.446 146.034 130.303 145.751C130.044 145.689 129.73 145.621 129.512 145.547L128.83 145.336C128.386 145.193 127.93 145.057 127.5 144.901C126.641 144.581 125.754 144.282 124.929 143.928C121.637 142.569 118.425 141.028 115.306 139.311C113.758 138.468 112.23 137.604 110.73 136.693C109.229 135.782 107.749 134.884 106.242 133.871L110.648 127.221Z" fill="#FFC3BD"/>
<path d="M102.716 132.07C103.759 137.088 116.424 144.31 116.424 144.31L121.041 132.212C121.041 132.212 117.434 129.962 112.046 126.371C106.658 122.781 101.563 126.562 102.716 132.07Z" fill="#263238"/>
<path d="M139.026 135.898L142.688 130.166L145.416 136.408C145.416 136.408 143.247 139.686 139.899 137.999L139.026 135.898Z" fill="#FFC3BD"/>
<path d="M147.36 127.996L149.153 132.674L145.423 136.401L142.688 130.165L147.36 127.996Z" fill="#FFC3BD"/>
<path opacity="0.2" d="M113.035 265.52L111.944 271.789H106.678L107.763 265.52H113.035Z" fill="black"/>
<path opacity="0.2" d="M79.4871 265.52H84.759L82.2697 271.789H77.0046L79.4871 265.52Z" fill="black"/>
<path d="M108.827 125.12C108.827 125.12 116.145 140.161 112.435 170.435L84.4725 174.093C83.9679 169.809 85.1545 148.437 79.5144 128.683C82.5497 127.684 85.6454 126.878 88.7828 126.269C92.7073 125.524 96.6718 125.006 100.656 124.719C103.386 124.636 106.118 124.77 108.827 125.12Z" fill="#263238"/>
<path opacity="0.2" d="M79.5417 128.697L79.6644 128.656C82.3924 127.894 85.5365 130.764 87.2142 134.953C89.6626 141.073 92.5474 149.144 92.5474 149.144L83.5109 151.3C82.8902 143.659 81.5614 136.093 79.5417 128.697Z" fill="black"/>
<path d="M89.0078 112.696C90.0377 116.436 91.2925 123.372 88.8101 126.296C92.0271 128.971 95.9712 130.629 100.138 131.056C102.75 128.289 100.684 124.753 100.684 124.753C96.3462 124.283 96.2302 121.094 96.7554 118.014L89.0078 112.696Z" fill="#FFC3BD"/>
<path d="M110.77 159.405L104.503 124.725C103.35 124.932 102.249 125.363 101.263 125.994C100.277 126.625 99.4248 127.443 98.756 128.402C98.0872 129.361 97.6145 130.443 97.3649 131.584C97.1152 132.725 97.0935 133.905 97.3009 135.054L100.404 152.245C100.829 154.564 102.159 156.62 104.102 157.962C106.046 159.304 108.444 159.823 110.77 159.405Z" fill="#6358ED"/>
<path opacity="0.3" d="M110.77 159.405L104.503 124.725C103.35 124.932 102.249 125.363 101.263 125.994C100.277 126.625 99.4248 127.443 98.756 128.402C98.0872 129.361 97.6145 130.443 97.3649 131.584C97.1152 132.725 97.0935 133.905 97.3009 135.054L100.404 152.245C100.829 154.564 102.159 156.62 104.102 157.962C106.046 159.304 108.444 159.823 110.77 159.405Z" fill="black"/>
<path d="M134.784 193.732L130.392 194.521C129.636 194.656 128.861 194.629 128.117 194.443C127.373 194.256 126.677 193.914 126.076 193.438C125.475 192.963 124.982 192.366 124.63 191.686C124.278 191.006 124.076 190.26 124.035 189.496L122.228 154.816C122.158 153.505 122.57 152.214 123.388 151.186C124.206 150.158 125.372 149.463 126.668 149.233L134.791 147.771C135.663 147.616 136.56 147.677 137.403 147.948C138.246 148.22 139.009 148.694 139.625 149.328C140.242 149.963 140.692 150.739 140.937 151.588C141.182 152.437 141.214 153.333 141.031 154.197L137.764 169.442C137.653 169.967 137.621 170.506 137.669 171.04L139.183 187.952C139.304 189.289 138.92 190.622 138.106 191.691C137.292 192.761 136.107 193.488 134.784 193.732Z" fill="#6358ED"/>
<path opacity="0.2" d="M134.791 147.757L126.668 149.212C125.374 149.445 124.209 150.141 123.392 151.168C122.574 152.196 122.161 153.485 122.228 154.795L122.821 166.307C128.177 165.4 133.547 164.646 138.93 164.043L141.031 154.169C141.214 153.306 141.181 152.411 140.935 151.563C140.689 150.715 140.239 149.94 139.622 149.307C139.006 148.674 138.243 148.201 137.4 147.931C136.558 147.66 135.662 147.601 134.791 147.757Z" fill="black"/>
<path d="M141.501 180.104L134.115 181.424L134.177 168.653L141.563 167.327L141.501 180.104Z" fill="#6358ED"/>
<path d="M142.62 173.516C142.62 177.045 142.102 179.996 141.501 180.098C140.901 180.2 140.424 177.439 140.437 173.91C140.451 170.381 140.956 167.437 141.563 167.328C142.17 167.219 142.64 170 142.62 173.516Z" fill="#6358ED"/>
<path opacity="0.2" d="M142.62 173.516C142.62 177.045 142.102 179.996 141.501 180.098C140.901 180.2 140.424 177.439 140.437 173.91C140.451 170.381 140.956 167.437 141.563 167.328C142.17 167.219 142.64 170 142.62 173.516Z" fill="black"/>
<path d="M111.302 116.083C108.875 116.525 106.723 117.908 105.316 119.929C103.91 121.951 103.365 124.446 103.8 126.867L109.352 157.624C109.793 160.045 111.18 162.192 113.208 163.595C115.236 164.997 117.739 165.54 120.168 165.104C138.296 161.855 156.703 160.417 175.117 160.813L194.056 161.228L181.93 94.0234L164.321 100.993C147.197 107.773 129.436 112.828 111.302 116.083Z" fill="#6358ED"/>
<path opacity="0.3" d="M159.929 102.68L170.405 160.758C171.325 160.758 172.253 160.758 173.173 160.758L162.507 101.667C161.634 102.047 160.788 102.374 159.929 102.68Z" fill="black"/>
<path d="M190.837 127.16C194.186 145.717 195.611 160.99 194.043 161.275C192.474 161.561 188.471 146.744 185.122 128.187C181.773 109.629 180.348 94.3566 181.917 94.071C183.485 93.7854 187.489 108.569 190.837 127.16Z" fill="#6358ED"/>
<path opacity="0.2" d="M190.837 127.16C194.186 145.717 195.611 160.99 194.043 161.275C192.474 161.561 188.471 146.744 185.122 128.187C181.773 109.629 180.348 94.3566 181.917 94.071C183.485 93.7854 187.489 108.569 190.837 127.16Z" fill="black"/>
<path opacity="0.2" d="M92.1655 114.858L96.7485 117.993C96.6153 118.707 96.5446 119.43 96.5371 120.156C94.8935 120.156 92.5269 118.632 92.2269 116.946C92.0803 116.26 92.0596 115.552 92.1655 114.858Z" fill="black"/>
<path d="M96.0324 97.4303C98.8013 97.6819 102.975 105.101 100.199 107.712C97.4237 110.323 90.7878 96.9475 96.0324 97.4303Z" fill="#263238"/>
<path d="M86.3139 108.011C87.9303 112.907 88.6191 115.865 91.8245 117.619C96.6394 120.258 102.245 116.001 102.143 110.636C102.054 105.808 99.4151 98.6134 94.0001 98.1918C92.7725 98.117 91.5452 98.3413 90.4241 98.8453C89.3029 99.3492 88.3217 100.118 87.565 101.084C86.8084 102.051 86.2991 103.187 86.0811 104.394C85.8631 105.6 85.943 106.842 86.3139 108.011Z" fill="#FFC3BD"/>
<path d="M99.572 96.6346C98.2263 96.361 96.852 96.2536 95.48 96.315C96.2774 95.5821 97.0014 94.7736 97.6419 93.901C96.3595 94.7769 94.9364 95.4277 93.434 95.8254C93.6851 95.1992 93.8414 94.5391 93.8978 93.867C92.8543 95.1182 91.0811 95.9682 89.1647 96.6822C89.9817 95.6674 90.6121 94.5163 91.0265 93.2822C89.833 95.4786 85.3523 97.3622 82.5288 99.2322H82.4879C82.2896 99.3493 82.1004 99.4812 81.9219 99.6266C81.6911 99.7884 81.4922 99.9913 81.3353 100.225C81.0683 100.519 80.8672 100.867 80.7455 101.245C80.6237 101.623 80.5841 102.022 80.6293 102.417C80.6745 102.811 80.8034 103.191 81.0074 103.532C81.2115 103.873 81.486 104.167 81.8127 104.393C81.2963 104.758 80.9269 105.295 80.7707 105.907C80.6145 106.518 80.6817 107.165 80.9602 107.732C80.9193 106.78 81.1444 105.74 81.8332 105.318C80.6738 108.664 84.5612 111.819 88.0257 112.71C90.0717 113.227 91.3266 105.42 89.3897 102.333C92.0154 102 94.2592 101.347 95.6027 100.422C94.5913 100.749 93.5178 100.84 92.4656 100.687C94.989 99.6946 97.7033 98.2938 99.8448 98.6474C98.8135 98.2732 97.7232 98.0866 96.6257 98.0966C97.3514 97.8 98.1263 97.6409 98.9104 97.6274C101.209 97.7226 102.723 99.6674 102.136 100.973C103.016 99.5654 102.696 97.2942 99.572 96.6346Z" fill="#263238"/>
<path d="M85.4819 114.24C85.9612 114.661 86.5218 114.981 87.1293 115.178C87.7368 115.376 88.3784 115.448 89.0147 115.389C90.7401 115.226 91.0607 113.512 90.1604 112.193C89.3284 111.01 87.4324 109.664 85.9047 110.486C85.5758 110.662 85.2945 110.914 85.0851 111.221C84.8757 111.529 84.7446 111.883 84.703 112.252C84.6613 112.622 84.7105 112.996 84.8462 113.342C84.9819 113.688 85.2001 113.997 85.4819 114.24Z" fill="#FFC3BD"/>
<path d="M112.435 170.449C112.435 170.449 126.757 209.705 125.236 225.719C123.674 242.386 113.996 270.599 113.996 270.599H105.069C105.069 270.599 110.307 243.399 110.866 227.018C111.473 209.182 95.0776 186.626 94.0751 172.883L112.435 170.449Z" fill="#6358ED"/>
<path opacity="0.2" d="M97.8261 183.981C97.5052 183.775 97.156 183.617 96.7894 183.512C99.9266 191.937 105.008 201.763 108.131 211.351C108.472 195.5 105.028 188.442 97.8261 183.981Z" fill="black"/>
<path d="M102.525 171.748C102.525 171.748 106.617 210.576 102.464 225.61C97.9148 242.08 84.8203 270.572 84.8203 270.572H75.17C75.17 270.572 83.5723 243.44 86.5731 227.12C89.833 209.44 85.4614 187.265 84.5271 174.121L102.525 171.748Z" fill="#6358ED"/>
<path d="M86.5185 270.783H74.2629L75.0882 267.179H88.2098L86.5185 270.783Z" fill="#6358ED"/>
<path opacity="0.4" d="M86.5185 270.783H74.2629L75.0882 267.179H88.2098L86.5185 270.783Z" fill="black"/>
<path d="M115.974 270.783H103.848L104.046 267.356L116.649 267.179L115.974 270.783Z" fill="#6358ED"/>
<path opacity="0.4" d="M115.974 270.783H103.848L104.046 267.356L116.649 267.179L115.974 270.783Z" fill="black"/>
<path d="M94.3001 106.984C94.4024 107.385 94.7093 107.664 94.9821 107.562C95.2549 107.46 95.3777 107.079 95.2754 106.671C95.1731 106.263 94.8662 105.991 94.5934 106.093C94.3206 106.195 94.191 106.576 94.3001 106.984Z" fill="#263238"/>
<path d="M98.89 105.509C98.9991 105.917 99.2992 106.189 99.572 106.093C99.8448 105.998 99.9744 105.604 99.8652 105.203C99.7561 104.801 99.456 104.523 99.1832 104.618C98.9104 104.713 98.815 105.101 98.89 105.509Z" fill="#263238"/>
<path d="M97.526 106.182C98.335 107.264 99.2976 108.224 100.384 109.031C100.161 109.318 99.8803 109.554 99.5593 109.724C99.2382 109.894 98.8845 109.994 98.5217 110.017L97.526 106.182Z" fill="#ED847E"/>
<path d="M97.6078 111.52C97.0779 111.712 96.5083 111.771 95.9501 111.69C95.3919 111.61 94.8624 111.392 94.4092 111.057C94.3973 111.046 94.3878 111.032 94.3813 111.017C94.3748 111.002 94.3714 110.985 94.3714 110.969C94.3714 110.952 94.3748 110.936 94.3813 110.921C94.3878 110.906 94.3973 110.892 94.4092 110.881C94.4321 110.858 94.4627 110.846 94.4945 110.846C94.5263 110.846 94.5569 110.858 94.5797 110.881C95.0048 111.184 95.4974 111.381 96.0153 111.453C96.5332 111.525 97.0609 111.471 97.5533 111.295C97.5685 111.29 97.5846 111.288 97.6006 111.29C97.6166 111.291 97.6322 111.296 97.6463 111.303C97.6604 111.311 97.6727 111.321 97.6826 111.334C97.6924 111.347 97.6994 111.361 97.7033 111.377C97.7063 111.408 97.6984 111.439 97.681 111.465C97.6636 111.491 97.6378 111.51 97.6078 111.52Z" fill="#263238"/>
<path d="M92.5201 105.944C92.4687 105.958 92.4147 105.958 92.3632 105.944C92.3326 105.933 92.3045 105.916 92.2809 105.893C92.2572 105.871 92.2384 105.844 92.2256 105.814C92.2128 105.784 92.2063 105.751 92.2065 105.719C92.2068 105.686 92.2137 105.654 92.2269 105.624C92.3681 105.245 92.5945 104.902 92.8888 104.623C93.1831 104.343 93.5375 104.135 93.925 104.013C93.9564 104.005 93.9891 104.003 94.0211 104.008C94.0531 104.013 94.0838 104.025 94.1112 104.042C94.1387 104.059 94.1623 104.082 94.1807 104.108C94.1991 104.135 94.2119 104.165 94.2183 104.196C94.2276 104.263 94.2127 104.33 94.1764 104.386C94.1401 104.442 94.0848 104.484 94.0205 104.502C93.7097 104.598 93.4252 104.764 93.1887 104.987C92.9523 105.21 92.7702 105.484 92.6565 105.788C92.6323 105.855 92.5836 105.911 92.5201 105.944Z" fill="#263238"/>
<path d="M100.534 103.285C100.49 103.3 100.443 103.301 100.399 103.291C100.354 103.28 100.313 103.257 100.281 103.224C100.087 102.984 99.8351 102.796 99.5493 102.677C99.2635 102.558 98.9525 102.513 98.6445 102.544C98.6134 102.551 98.5812 102.551 98.55 102.545C98.5188 102.538 98.4894 102.525 98.4636 102.507C98.4378 102.488 98.4163 102.464 98.4004 102.437C98.3846 102.409 98.3748 102.378 98.3717 102.347C98.3651 102.281 98.3829 102.215 98.4219 102.161C98.4608 102.107 98.5182 102.069 98.5831 102.054C98.9637 102.006 99.3502 102.054 99.7076 102.193C100.065 102.332 100.382 102.558 100.629 102.85C100.674 102.898 100.699 102.961 100.699 103.027C100.699 103.092 100.674 103.156 100.629 103.204C100.607 103.24 100.574 103.269 100.534 103.285Z" fill="#263238"/>
<path d="M85.1545 132.94C85.741 135.218 86.3548 137.612 87.0163 139.93C87.6779 142.249 88.3394 144.582 89.0623 146.866C89.7853 149.151 90.59 151.409 91.4425 153.598C92.2406 155.711 93.2052 157.757 94.3274 159.718C94.4638 159.929 94.5934 160.174 94.7298 160.364L94.9412 160.67L95.0435 160.82C95.2384 161.055 95.4685 161.259 95.7255 161.425C96.5926 162.024 97.5046 162.556 98.4535 163.016C100.499 164.03 102.73 164.961 104.98 165.838C109.495 167.593 114.174 169.238 118.811 170.816L117.911 174.658C112.908 173.936 107.953 172.919 103.071 171.612C100.562 170.946 98.0938 170.137 95.6777 169.191C94.3457 168.672 93.0591 168.045 91.8313 167.314C91.0273 166.833 90.293 166.245 89.6489 165.566L89.342 165.24L89.1715 165.022L88.8236 164.574C88.5849 164.274 88.4008 163.982 88.1894 163.683C86.6969 161.431 85.4139 159.048 84.3565 156.563C83.2926 154.19 82.3924 151.803 81.5535 149.376C79.8796 144.582 78.4747 139.698 77.3456 134.749L85.1545 132.94Z" fill="#FFC3BD"/>
<path d="M76.4181 131.587C73.8265 137.611 78.0412 151.354 78.0412 151.354L90.6582 148.124C89.8787 143.275 88.7551 138.487 87.296 133.797C85.1136 127.357 78.43 126.949 76.4181 131.587Z" fill="#263238"/>
<path d="M82.372 277.99C81.9115 277.979 81.4539 277.915 81.008 277.8C80.9848 277.794 80.964 277.78 80.9483 277.762C80.9325 277.744 80.9224 277.722 80.9193 277.698C80.9185 277.673 80.9244 277.649 80.9364 277.627C80.9484 277.606 80.9661 277.588 80.9875 277.576C81.1853 277.453 82.9448 276.413 83.5109 276.712C83.5737 276.746 83.6253 276.798 83.6592 276.86C83.6931 276.923 83.7079 276.995 83.7019 277.066C83.7119 277.194 83.6905 277.323 83.6394 277.442C83.5883 277.56 83.5091 277.664 83.4086 277.746C83.0997 277.939 82.7352 278.025 82.372 277.99ZM81.3763 277.623C81.9911 277.828 82.661 277.794 83.2517 277.528C83.3181 277.474 83.3706 277.405 83.405 277.327C83.4394 277.249 83.4546 277.164 83.4495 277.079C83.4517 277.05 83.4459 277.02 83.4327 276.994C83.4195 276.968 83.3994 276.945 83.3745 276.93C83.0812 276.76 82.0855 277.229 81.3763 277.623Z" fill="#6358ED"/>
<path d="M81.0285 277.8H80.9671C80.9487 277.789 80.9339 277.773 80.9243 277.753C80.9146 277.734 80.9106 277.713 80.9125 277.691C80.9125 277.623 81.1376 276.107 81.7787 275.61C81.8522 275.548 81.9383 275.501 82.0312 275.474C82.1241 275.447 82.2216 275.44 82.3174 275.454C82.4093 275.451 82.499 275.482 82.5694 275.541C82.6398 275.6 82.686 275.683 82.6993 275.774C82.7744 276.365 81.6559 277.514 81.0898 277.814C81.0684 277.817 81.0466 277.812 81.0285 277.8ZM82.2219 275.672C82.1149 275.675 82.0119 275.713 81.9287 275.78C81.5349 276.249 81.284 276.82 81.2058 277.426C81.7718 277.018 82.4947 276.148 82.447 275.801C82.447 275.801 82.447 275.699 82.2765 275.678L82.2219 275.672Z" fill="#6358ED"/>
<path d="M113.062 277.991C112.509 277.979 111.959 277.916 111.418 277.8C111.393 277.797 111.37 277.785 111.352 277.767C111.335 277.748 111.324 277.724 111.323 277.698C111.32 277.672 111.326 277.645 111.34 277.622C111.353 277.599 111.374 277.58 111.398 277.569C111.643 277.447 113.819 276.372 114.44 276.733C114.498 276.765 114.546 276.813 114.579 276.87C114.613 276.928 114.631 276.993 114.631 277.059C114.635 277.174 114.613 277.289 114.566 277.394C114.519 277.499 114.447 277.592 114.358 277.664C113.975 277.915 113.518 278.03 113.062 277.991ZM111.841 277.624C112.994 277.814 113.887 277.766 114.201 277.481C114.26 277.433 114.307 277.371 114.338 277.301C114.369 277.232 114.383 277.156 114.378 277.08C114.38 277.054 114.375 277.028 114.363 277.005C114.351 276.982 114.333 276.963 114.31 276.95C113.969 276.76 112.735 277.209 111.848 277.624H111.841Z" fill="#6358ED"/>
<path d="M111.439 277.8C111.417 277.807 111.393 277.807 111.371 277.8C111.353 277.787 111.339 277.769 111.331 277.749C111.322 277.729 111.32 277.706 111.323 277.685C111.419 276.925 111.745 276.214 112.257 275.645C112.449 275.488 112.692 275.411 112.939 275.427C113.28 275.468 113.369 275.638 113.389 275.781C113.451 276.372 112.121 277.508 111.473 277.821L111.439 277.8ZM112.851 275.672C112.688 275.672 112.531 275.73 112.407 275.835C111.988 276.284 111.713 276.847 111.616 277.453C112.298 277.066 113.198 276.175 113.157 275.815C113.157 275.815 113.157 275.699 112.926 275.679L112.851 275.672Z" fill="#6358ED"/>
<path d="M117.809 170.727L123.08 169.864L120.959 176.399C120.959 176.399 116.363 176.133 116.37 173.631L117.809 170.727Z" fill="#FFC3BD"/>
<path d="M128.073 172.291L126.054 177.568L120.96 176.399L123.081 169.864L128.073 172.291Z" fill="#FFC3BD"/>
<path d="M267.569 97.6006L259.842 68.9726C259.692 68.4144 259.433 67.8912 259.079 67.4329C258.726 66.9746 258.286 66.5901 257.784 66.3016C257.281 66.013 256.727 65.8259 256.152 65.751C255.577 65.6761 254.994 65.7148 254.434 65.865L198.51 80.825C197.379 81.1292 196.415 81.8688 195.83 82.8813C195.246 83.8937 195.089 85.0962 195.393 86.2242L203.113 114.852C203.417 115.98 204.157 116.941 205.171 117.525C206.185 118.109 207.39 118.268 208.522 117.967L216.412 115.852L227.277 122.087L224.965 113.56L264.452 102.979C265.579 102.675 266.539 101.939 267.123 100.931C267.707 99.923 267.867 98.7258 267.569 97.6006Z" fill="#6358ED"/>
<path opacity="0.2" d="M267.569 97.6006L259.842 68.9726C259.692 68.4144 259.433 67.8912 259.079 67.4329C258.726 66.9746 258.286 66.5901 257.784 66.3016C257.281 66.013 256.727 65.8259 256.152 65.751C255.577 65.6761 254.994 65.7148 254.434 65.865L198.51 80.825C197.379 81.1292 196.415 81.8688 195.83 82.8813C195.246 83.8937 195.089 85.0962 195.393 86.2242L203.113 114.852C203.417 115.98 204.157 116.941 205.171 117.525C206.185 118.109 207.39 118.268 208.522 117.967L216.412 115.852L227.277 122.087L224.965 113.56L264.452 102.979C265.579 102.675 266.539 101.939 267.123 100.931C267.707 99.923 267.867 98.7258 267.569 97.6006Z" fill="black"/>
<path d="M290.355 157.543L293.342 138.163C293.459 137.4 293.268 136.622 292.81 135.999C292.352 135.377 291.665 134.962 290.9 134.844L253.022 129.037C252.643 128.978 252.256 128.994 251.884 129.085C251.511 129.176 251.16 129.339 250.851 129.565C250.541 129.791 250.28 130.076 250.081 130.403C249.883 130.73 249.751 131.093 249.694 131.472L246.7 150.852C246.582 151.614 246.774 152.393 247.231 153.015C247.689 153.637 248.376 154.053 249.141 154.17L254.481 154.993L259.385 161.657L260.278 155.877L286.999 159.957C287.379 160.019 287.767 160.006 288.141 159.918C288.515 159.83 288.868 159.669 289.18 159.445C289.492 159.221 289.756 158.937 289.958 158.611C290.159 158.284 290.294 157.921 290.355 157.543Z" fill="#6358ED"/>
<path opacity="0.3" d="M290.355 157.543L293.342 138.163C293.459 137.4 293.268 136.622 292.81 135.999C292.352 135.377 291.665 134.962 290.9 134.844L253.022 129.037C252.643 128.978 252.256 128.994 251.884 129.085C251.511 129.176 251.16 129.339 250.851 129.565C250.541 129.791 250.28 130.076 250.081 130.403C249.883 130.73 249.751 131.093 249.694 131.472L246.7 150.852C246.582 151.614 246.774 152.393 247.231 153.015C247.689 153.637 248.376 154.053 249.141 154.17L254.481 154.993L259.385 161.657L260.278 155.877L286.999 159.957C287.379 160.019 287.767 160.006 288.141 159.918C288.515 159.83 288.868 159.669 289.18 159.445C289.492 159.221 289.756 158.937 289.958 158.611C290.159 158.284 290.294 157.921 290.355 157.543Z" fill="white"/>
<path d="M289.011 126.127L284.142 91.4466C283.949 90.0787 283.219 88.8431 282.113 88.0117C281.007 87.1803 279.614 86.821 278.242 87.013L210.445 96.465C209.073 96.6571 207.834 97.3848 207 98.4878C206.166 99.5909 205.806 100.979 205.998 102.347L210.868 137.027C210.961 137.704 211.188 138.357 211.535 138.946C211.883 139.536 212.343 140.052 212.891 140.464C213.438 140.876 214.062 141.176 214.726 141.347C215.39 141.518 216.081 141.556 216.76 141.461L226.308 140.101L238.141 149.002L236.688 138.652L284.544 131.981C285.914 131.792 287.152 131.07 287.989 129.973C288.826 128.876 289.194 127.493 289.011 126.127Z" fill="#6358ED"/>
<path d="M217.169 111.697L221.009 111.16L227.045 117.797L226.015 110.46L229.889 109.922L231.75 123.182L227.877 123.726L221.875 117.137L222.898 124.42L219.031 124.957L217.169 111.697Z" fill="white"/>
<path d="M232.61 109.541L243.631 108.004L244.026 110.84L237.131 111.799L237.425 113.907L243.822 113.016L244.204 115.736L237.807 116.627L238.168 119.238L245.268 118.252L245.69 121.251L234.472 122.815L232.61 109.541Z" fill="white"/>
<path d="M244.674 107.862L248.575 107.318L251.024 114.546L252.04 106.835L255.927 106.291L259.03 113.417L259.399 105.808L263.279 105.264L262.209 118.939L258.178 119.497L254.672 111.473L253.52 120.149L249.489 120.707L244.674 107.862Z" fill="white"/>
<path d="M265.148 114.05L269.029 113.261C269.135 113.765 269.37 114.234 269.711 114.621C269.966 114.858 270.274 115.031 270.609 115.127C270.945 115.223 271.298 115.238 271.641 115.172C272.132 115.136 272.594 114.92 272.936 114.567C273.067 114.433 273.166 114.272 273.226 114.096C273.286 113.919 273.306 113.732 273.284 113.547C273.254 113.37 273.187 113.202 273.085 113.054C272.984 112.906 272.852 112.782 272.698 112.69C272.004 112.374 271.25 112.212 270.488 112.214C269.058 112.182 267.656 111.814 266.396 111.139C265.979 110.879 265.626 110.529 265.363 110.115C265.1 109.701 264.933 109.233 264.875 108.746C264.776 108.049 264.891 107.338 265.203 106.706C265.553 106.003 266.103 105.419 266.785 105.026C267.775 104.493 268.863 104.162 269.983 104.054C271.334 103.779 272.737 103.919 274.007 104.455C274.524 104.748 274.971 105.149 275.318 105.63C275.666 106.111 275.905 106.661 276.019 107.243L272.179 108.011C272.057 107.519 271.762 107.087 271.347 106.794C270.911 106.561 270.408 106.484 269.922 106.577C269.533 106.602 269.166 106.763 268.885 107.032C268.785 107.135 268.709 107.26 268.664 107.397C268.619 107.533 268.606 107.679 268.626 107.821C268.645 107.932 268.69 108.038 268.756 108.13C268.822 108.222 268.908 108.298 269.008 108.351C269.463 108.552 269.956 108.652 270.454 108.644C271.815 108.698 273.166 108.91 274.478 109.276C275.215 109.504 275.874 109.932 276.381 110.514C276.819 111.057 277.098 111.712 277.185 112.404C277.308 113.239 277.177 114.092 276.81 114.852C276.429 115.647 275.822 116.311 275.064 116.763C274.101 117.307 273.035 117.648 271.934 117.763C269.661 118.08 268.033 117.853 267.051 117.083C266.079 116.326 265.405 115.252 265.148 114.05Z" fill="white"/>
</svg>
